<?xml version="1.0" encoding="utf-8"?>
<!-- Generator: Adobe Illustrator 27.5.0, SVG Export Plug-In . SVG Version: 6.00 Build 0)  -->
<svg version="1.1" id="Layer_1" xmlns="http://www.w3.org/2000/svg" xmlns:xlink="http://www.w3.org/1999/xlink" x="0px" y="0px"
	 viewBox="0 0 96 96" style="enable-background:new 0 0 96 96;" xml:space="preserve">
<style type="text/css">
	.st0{fill:#E4909D;}
</style>
<g id="surface46677390">
	<path class="st0" d="M20,12c-4.4,0-8,3.6-8,8v56c0,4.4,3.6,8,8,8h56c4.4,0,8-3.6,8-8V20c0-4.4-3.6-8-8-8H20z M20,20h56v56H20V20z
		 M31.1,25.3c-3.4,0-5.5,2.1-5.5,4.8s2.1,4.8,5.1,4.8c3.4,0,5.5-2.1,5.5-4.8S34.2,25.3,31.1,25.3z M25.9,40v28H36V40H25.9z M44.3,40
		v28h10.1V52.7c0-4.6,3.2-5.2,4.2-5.2s3.6,1,3.6,5.2V68H72V52.7c0-8.8-3.9-12.7-8.8-12.7s-7.5,1.6-8.8,3.9V40H44.3z"/>
</g>
</svg>
