<?xml version="1.0" encoding="utf-8"?>
<!-- Generator: Adobe Illustrator 27.5.0, SVG Export Plug-In . SVG Version: 6.00 Build 0)  -->
<svg version="1.1" id="Capa_1" xmlns="http://www.w3.org/2000/svg" xmlns:xlink="http://www.w3.org/1999/xlink" x="0px" y="0px"
	 viewBox="0 0 800 800" style="enable-background:new 0 0 800 800;" xml:space="preserve">
<style type="text/css">
	.st0{fill:#E4909D;}
</style>
<path class="st0" d="M400,0C179.1,0,0,179.1,0,400s179.1,400,400,400s400-179.1,400-400S620.9,0,400,0z M458,270.4H611
	c1.3,0,0.5-0.1,1.8,0.1L458,401.7L458,270.4L458,270.4z M428.4,598.3c0,13.4-11.6,23.4-24.7,20.5l-221.6-48.5
	c-9.6-2.1-16.7-10.6-16.7-20.5V239.6c0-10.2,7.8-19,17.9-20.7l221-37.9c12.8-2.2,24.1,7.7,24.1,20.7L428.4,598.3L428.4,598.3z
	 M632.1,309.4v199.2c0,13.6-7.5,21-21.1,21H458v-81c0-0.3,172.9-149.4,172.9-149.4C632.4,302.3,632.1,305.8,632.1,309.4z
	 M331.6,309.6c-27.7-14.5-59.8-10.3-84,8.4c-23.3,18-37.8,50.4-37.8,82s14.5,64,37.8,82c10.7,8.3,22.9,13.7,35.7,15.9
	c16.1,2.8,32.9,0.5,48.3-7.5c29.4-15.4,47.6-48.8,47.6-90.4C379.2,358.3,361,324.9,331.6,309.6z M309.1,447.9
	c-14.1,9.3-33.3,8.9-47.8-0.5c-15.8-10.2-23.9-31.5-23.9-47.4c0-15.9,8.1-37.2,23.9-47.4c6.6-4.3,14.2-6.7,21.9-7.1
	c9.1-0.6,18.3,1.6,26,6.7c13.4,8.8,20.3,25,20.3,47.9C329.4,422.9,322.4,439.1,309.1,447.9z"/>
</svg>
