<?xml version="1.0" standalone="no"?>
<!DOCTYPE svg PUBLIC "-//W3C//DTD SVG 20010904//EN"
 "http://www.w3.org/TR/2001/REC-SVG-20010904/DTD/svg10.dtd">
<svg version="1.0" xmlns="http://www.w3.org/2000/svg"
 width="602.000000pt" height="1280.000000pt" viewBox="0 0 602.000000 1280.000000"
 preserveAspectRatio="xMidYMid meet">

<g transform="translate(0.000000,1280.000000) scale(0.100000,-0.100000)"
fill="#000000" stroke="none">
<path d="M1981 12044 c0 -11 3 -14 6 -6 3 7 2 16 -1 19 -3 4 -6 -2 -5 -13z"/>
<path d="M1972 12000 c0 -14 2 -19 5 -12 2 6 2 18 0 25 -3 6 -5 1 -5 -13z"/>
<path d="M1926 11772 c-73 -374 -116 -646 -116 -732 0 -35 13 -52 67 -83 9 -5
12 44 12 197 1 217 16 392 57 649 14 87 24 160 22 163 -2 2 -21 -85 -42 -194z"/>
<path d="M2202 11790 c0 -14 2 -19 5 -12 2 6 2 18 0 25 -3 6 -5 1 -5 -13z"/>
<path d="M4110 11224 c-23 -10 -51 -14 -82 -10 -53 6 -62 -1 -72 -56 -6 -36
-6 -36 31 -43 24 -4 54 0 82 10 84 29 141 13 141 -40 0 -13 5 -27 10 -30 6 -4
10 6 10 24 0 41 9 61 26 54 26 -10 15 35 -17 72 -35 40 -70 45 -129 19z"/>
<path d="M712 11137 c-7 -8 -32 -20 -56 -27 -25 -7 -55 -23 -68 -37 l-23 -25
35 7 c53 10 129 35 135 45 3 4 1 18 -3 30 -7 19 -10 20 -20 7z"/>
<path d="M2157 10983 c-10 -54 -18 -137 -18 -185 l-2 -86 49 -56 c26 -31 51
-56 56 -56 19 0 7 112 -18 172 -19 47 -28 89 -35 181 -5 66 -10 122 -12 124
-2 2 -11 -41 -20 -94z"/>
<path d="M515 11000 c-10 -11 -16 -22 -13 -25 3 -3 13 4 23 15 10 11 16 22 13
25 -3 3 -13 -4 -23 -15z"/>
<path d="M2471 10942 c-15 -46 -6 -101 36 -211 14 -35 27 -79 30 -98 l6 -34
34 33 c18 18 38 49 44 69 10 32 8 40 -15 76 -15 22 -29 52 -32 67 -2 15 -19
43 -37 62 -18 20 -37 45 -43 56 -9 17 -12 16 -23 -20z"/>
<path d="M3478 10863 c-32 -38 -97 -142 -148 -240 l-54 -103 -23 28 c-12 15
-25 38 -28 52 -3 14 -23 45 -44 70 l-38 44 -7 -59 c-3 -33 -11 -118 -16 -190
-6 -71 -15 -155 -20 -185 -4 -30 -11 -81 -15 -112 -3 -31 -28 -119 -55 -196
-27 -77 -56 -167 -64 -199 -28 -109 -117 -706 -131 -878 -6 -78 -6 -79 10 -50
9 16 22 37 29 45 27 31 75 127 90 180 17 56 50 242 61 340 3 30 8 66 10 80 2
14 6 50 10 80 3 30 8 66 10 80 2 14 7 47 10 75 20 161 85 408 159 597 75 193
167 389 222 476 53 81 62 99 32 65z"/>
<path d="M3720 10834 c-11 -21 -25 -58 -30 -83 -5 -25 -12 -55 -15 -66 -6 -18
-4 -17 14 3 11 13 23 40 26 60 4 20 13 56 20 80 8 23 12 42 10 42 -1 0 -13
-16 -25 -36z"/>
<path d="M3597 10628 c-34 -26 -48 -82 -41 -171 6 -72 4 -89 -12 -116 -10 -17
-22 -31 -26 -31 -16 0 -48 -65 -47 -95 0 -27 2 -26 14 14 8 24 29 60 48 80 44
45 49 65 52 176 1 63 7 100 18 123 19 35 19 38 -6 20z"/>
<path d="M350 10571 c0 -27 -5 -62 -10 -77 -9 -23 -6 -34 24 -78 22 -32 42
-81 55 -130 22 -90 105 -236 202 -357 33 -41 82 -121 110 -180 28 -58 61 -111
72 -118 l22 -14 -21 24 c-43 50 -153 332 -248 639 -36 114 -58 165 -104 240
-41 67 -65 96 -80 98 -20 3 -22 -1 -22 -47z"/>
<path d="M530 10585 c-4 -61 3 -94 62 -280 88 -282 154 -466 214 -599 30 -65
54 -121 54 -123 0 -2 -6 -1 -12 2 -7 4 -5 0 5 -8 10 -9 18 -17 17 -19 -2 -5
51 -123 58 -128 4 -3 9 -14 10 -25 7 -39 91 -161 136 -196 78 -62 171 -227
209 -377 26 -97 64 -159 159 -253 109 -108 220 -159 346 -159 70 0 152 16 152
29 0 3 -40 28 -87 56 -48 27 -101 61 -117 74 l-31 25 30 -33 c28 -30 29 -33
12 -45 -9 -8 -16 -23 -15 -36 5 -41 -21 -33 -81 25 -205 195 -606 812 -797
1225 -74 160 -108 251 -208 571 -31 97 -69 205 -85 240 -27 58 -30 61 -31 34z"/>
<path d="M2140 9930 c0 -12 6 -49 14 -83 8 -34 22 -100 31 -147 10 -47 28
-128 41 -180 14 -52 36 -150 49 -217 28 -135 49 -199 71 -207 8 -3 14 -10 14
-17 0 -6 14 -29 31 -50 23 -29 38 -39 59 -39 15 0 38 -9 51 -19 23 -18 24 -26
24 -129 0 -78 3 -108 11 -104 19 11 92 100 135 163 87 129 115 271 106 547 -5
161 -19 249 -56 345 l-11 28 -23 -26 c-24 -29 -48 -33 -112 -20 -22 5 -51 8
-65 6 -81 -7 -103 -3 -134 26 -17 15 -47 37 -66 47 -19 10 -46 29 -60 41 -20
19 -91 55 -106 55 -2 0 -4 -9 -4 -20z"/>
<path d="M1391 9904 c-1 -30 7 -53 29 -85 16 -24 30 -49 30 -55 0 -7 29 -43
64 -80 l64 -69 11 28 c7 17 7 35 1 50 -5 12 -14 41 -20 63 -7 27 -17 43 -29
47 -11 3 -27 21 -35 41 -11 27 -26 41 -59 55 -25 11 -47 25 -50 33 -3 7 -6 -5
-6 -28z"/>
<path d="M3385 9760 c-30 -59 -33 -88 -4 -43 19 30 42 93 33 93 -2 0 -15 -22
-29 -50z"/>
<path d="M4343 9342 c-34 -30 -63 -68 -81 -107 -15 -33 -47 -93 -71 -134 -24
-41 -52 -106 -62 -144 -9 -38 -20 -71 -23 -75 -7 -6 -10 70 -7 191 3 136 -8
139 -68 16 -110 -227 -160 -494 -112 -595 10 -21 22 -54 26 -73 4 -19 13 -41
20 -48 11 -10 18 -5 39 30 l25 42 1 -42 0 -43 53 0 c28 0 90 10 137 23 158 42
259 145 289 295 15 74 14 201 -4 307 -20 123 -87 381 -103 397 -4 4 -31 -14
-59 -40z"/>
<path d="M3243 9200 c-28 -149 -36 -234 -37 -400 -1 -272 39 -458 107 -503
l23 -15 -32 106 c-18 59 -37 152 -43 207 -7 55 -16 135 -22 179 -8 61 -7 114
6 240 9 88 15 181 13 206 l-3 45 -12 -65z"/>
<path d="M5758 8953 c-33 -37 -81 -118 -101 -173 -20 -52 -75 -282 -142 -590
-44 -201 -89 -351 -204 -670 -40 -112 -54 -210 -31 -210 15 0 82 44 104 69 11
11 24 21 29 21 6 0 18 7 28 16 16 14 18 14 27 -3 13 -25 15 -156 3 -233 -5
-36 -12 -83 -16 -105 -3 -22 -13 -69 -21 -105 -15 -62 -28 -246 -18 -262 16
-25 60 41 184 275 34 64 66 117 72 117 22 0 -12 -145 -94 -400 -63 -200 -142
-397 -327 -823 -11 -26 -32 -91 -46 -145 -15 -53 -48 -167 -75 -252 -26 -85
-53 -180 -60 -210 -26 -120 -127 -393 -201 -547 -42 -90 -76 -163 -74 -163 2
0 40 63 84 139 516 890 850 1717 1000 2478 62 310 75 457 76 808 0 271 -4 366
-27 622 -16 165 -31 308 -34 317 -7 19 -69 56 -93 56 -9 0 -29 -12 -43 -27z"/>
<path d="M3021 8718 c-30 -76 -41 -134 -39 -208 0 -36 3 -51 5 -35 5 42 51
258 59 278 3 9 4 17 1 17 -2 0 -14 -24 -26 -52z"/>
<path d="M2273 8559 c-20 -6 -51 -31 -80 -65 l-48 -56 -92 5 c-51 3 -93 4 -93
2 0 -1 42 -10 93 -20 50 -10 97 -23 104 -29 16 -14 148 -378 208 -571 91 -293
246 -925 289 -1180 37 -217 69 -470 115 -915 5 -47 19 -128 32 -180 23 -95 23
-97 21 -665 -2 -657 -12 -1073 -23 -1005 -4 25 -8 106 -10 180 -1 124 -2 129
-9 65 -14 -120 -30 -540 -30 -767 0 -478 88 -1220 203 -1718 l22 -95 6 55 c5
48 6 43 7 -36 1 -55 12 -135 27 -202 38 -166 92 -470 125 -701 38 -262 81
-641 74 -653 -3 -4 31 -8 75 -8 l81 0 0 93 c0 146 10 784 15 982 3 134 14 242
40 425 20 135 53 396 75 580 35 308 42 348 85 495 54 188 163 522 212 650 89
233 110 380 117 791 4 237 3 314 -7 326 -15 19 -75 40 -82 29 -2 -5 -36 -204
-76 -442 -99 -608 -190 -1134 -183 -1069 3 30 46 300 95 600 231 1406 326
2096 379 2740 16 189 13 636 -5 922 -15 234 -15 245 4 347 37 199 44 266 45
421 1 197 -12 256 -60 276 -44 19 -102 18 -161 -2 -36 -12 -69 -15 -128 -11
-80 5 -61 -4 37 -17 l47 -7 15 -69 c24 -102 38 -342 35 -598 -1 -125 -1 -407
1 -627 3 -327 0 -427 -14 -550 -15 -133 -48 -315 -61 -336 -3 -4 -23 2 -44 14
-22 12 -43 19 -46 15 -4 -4 -18 -105 -30 -225 -49 -450 -50 -460 -99 -564 -24
-52 -68 -157 -98 -234 -31 -77 -59 -149 -64 -160 -8 -19 -13 156 -28 940 -14
718 -42 1366 -72 1645 -14 128 -95 667 -104 688 -5 12 -15 22 -22 22 -7 0 -39
11 -70 24 l-58 24 5 -22 c3 -11 14 -102 25 -201 11 -99 27 -223 35 -275 8 -52
19 -142 25 -200 13 -135 25 -618 16 -653 l-6 -26 -34 37 c-19 20 -37 34 -41
30 -4 -4 0 -188 9 -410 20 -500 39 -1188 33 -1195 -3 -2 -38 59 -78 137 -42
81 -75 134 -77 123 -5 -37 28 -172 78 -313 28 -80 57 -179 65 -220 31 -157 35
-178 51 -277 13 -80 14 -120 6 -191 -9 -86 -11 -92 -53 -141 -24 -28 -52 -54
-61 -57 -17 -5 -18 -38 -20 -487 l-1 -482 -8 370 c-31 1459 -71 2060 -179
2690 -97 566 -337 1475 -512 1939 -56 149 -60 188 -21 228 24 25 25 28 7 27
-10 0 -33 -5 -51 -10z m1322 -3431 c-32 -276 -91 -684 -102 -701 -11 -19 -54
40 -73 100 -18 59 -19 69 -5 146 20 115 68 262 127 395 28 61 52 112 55 112 2
0 1 -24 -2 -52z m-788 -1425 c-2 -21 -4 -6 -4 32 0 39 2 55 4 38 2 -18 2 -50
0 -70z m230 -425 c-3 -8 -6 -5 -6 6 -1 11 2 17 5 13 3 -3 4 -12 1 -19z m-10
-481 c-1 -84 -3 -12 -3 158 0 171 2 239 3 152 2 -87 2 -227 0 -310z m-10 -449
c-1 -40 -3 -8 -3 72 0 80 2 112 3 73 2 -40 2 -106 0 -145z m-10 -330 c-2 -29
-3 -6 -3 52 0 58 1 81 3 53 2 -29 2 -77 0 -105z m-10 -270 c-2 -29 -3 -6 -3
52 0 58 1 81 3 53 2 -29 2 -77 0 -105z"/>
<path d="M4360 8179 c-36 -10 -85 -23 -110 -28 -43 -10 -43 -10 15 -5 61 6
142 29 160 45 5 5 7 8 5 8 -3 -1 -34 -10 -70 -20z"/>
<path d="M1060 7116 c0 -9 45 -83 101 -166 143 -214 229 -360 324 -555 107
-217 147 -327 201 -550 112 -455 178 -672 383 -1255 96 -273 189 -686 284
-1256 l52 -310 0 280 c0 345 11 423 159 1096 45 206 94 451 118 590 19 113 17
367 -5 469 -78 363 -263 676 -597 1011 -177 178 -552 484 -593 485 -7 0 -41
16 -77 34 -83 43 -282 128 -320 136 -23 5 -30 3 -30 -9z"/>
<path d="M1840 6795 c0 -1 53 -45 117 -96 234 -187 474 -439 621 -652 68 -99
79 -105 32 -18 -29 52 -29 54 -5 26 30 -37 33 -25 3 15 -11 16 -26 26 -32 23
-6 -3 -8 -3 -4 2 4 4 -5 24 -20 44 -61 83 -333 409 -369 442 -80 77 -209 179
-225 179 -10 0 -40 9 -68 19 -27 11 -50 18 -50 16z"/>
<path d="M4408 6453 c-234 -286 -378 -483 -378 -517 0 -26 10 -16 81 80 45 60
101 130 124 157 55 60 333 457 322 457 -2 0 -69 -80 -149 -177z"/>
<path d="M2627 4072 c-30 -164 -65 -418 -94 -667 -24 -205 -23 -694 0 -920 35
-327 88 -585 203 -985 84 -295 136 -491 130 -497 -2 -2 -14 25 -26 59 -13 35
-27 68 -32 75 -5 7 -5 14 1 17 10 6 -40 164 -79 251 -15 35 -108 315 -170 515
-11 37 -18 50 -15 30 36 -268 184 -1823 185 -1932 0 -17 17 -18 215 -18 l215
0 -5 38 c-63 450 -139 810 -240 1137 -18 61 -58 191 -89 290 -236 772 -282
1345 -196 2444 11 140 19 255 17 257 -1 2 -11 -40 -20 -94z"/>
</g>
</svg>
